<?xml version="1.0" encoding="UTF-8" standalone="no"?>
<!-- Created with Inkscape (http://www.inkscape.org/) -->

<svg
   xmlns:dc="http://purl.org/dc/elements/1.1/"
   xmlns:cc="http://creativecommons.org/ns#"
   xmlns:rdf="http://www.w3.org/1999/02/22-rdf-syntax-ns#"
   xmlns:svg="http://www.w3.org/2000/svg"
   xmlns="http://www.w3.org/2000/svg"
   xmlns:xlink="http://www.w3.org/1999/xlink"
   xmlns:sodipodi="http://sodipodi.sourceforge.net/DTD/sodipodi-0.dtd"
   xmlns:inkscape="http://www.inkscape.org/namespaces/inkscape"
   width="3cm"
   height="3cm"
   viewBox="0 0 30 30"
   version="1.1"
   id="svg3739"
   inkscape:version="0.92.2 2405546, 2018-03-11">
  <defs
     id="defs3733">
    <linearGradient
       inkscape:collect="always"
       id="linearGradient8302">
      <stop
         style="stop-color:#000000;stop-opacity:1;"
         offset="0"
         id="stop8298" />
      <stop
         style="stop-color:#d5d5d5;stop-opacity:0.82283467"
         offset="1"
         id="stop8300" />
    </linearGradient>
    <linearGradient
       inkscape:collect="always"
       xlink:href="#linearGradient8302"
       id="linearGradient8304"
       x1="17.727083"
       y1="13.860416"
       x2="18.785418"
       y2="12.802083"
       gradientUnits="userSpaceOnUse" />
  </defs>
  <sodipodi:namedview
     id="base"
     pagecolor="#ffffff"
     bordercolor="#666666"
     borderopacity="1.0"
     inkscape:pageopacity="0.0"
     inkscape:pageshadow="2"
     inkscape:zoom="4"
     inkscape:cx="81.083152"
     inkscape:cy="27.292259"
     inkscape:document-units="mm"
     inkscape:current-layer="layer1"
     showgrid="true"
     units="cm"
     width="12in"
     inkscape:window-width="1920"
     inkscape:window-height="1016"
     inkscape:window-x="0"
     inkscape:window-y="27"
     inkscape:window-maximized="1"
     inkscape:snap-global="false">
    <inkscape:grid
       type="xygrid"
       id="grid3741" />
  </sodipodi:namedview>
  <metadata
     id="metadata3736">
    <rdf:RDF>
      <cc:Work
         rdf:about="">
        <dc:format>image/svg+xml</dc:format>
        <dc:type
           rdf:resource="http://purl.org/dc/dcmitype/StillImage" />
        <dc:title></dc:title>
      </cc:Work>
    </rdf:RDF>
  </metadata>
  <g
     inkscape:groupmode="layer"
     id="layer2"
     inkscape:label="r2d2"
     style="display:inline">
    <path
       style="fill:none;stroke:#000000;stroke-width:0.27684024;stroke-linecap:butt;stroke-linejoin:miter;stroke-miterlimit:4;stroke-dasharray:none;stroke-opacity:1"
       d="M 5.2916667,30.014512 5.2826736,21.75687 C 5.2826736,11.765447 10.95304,7.5155297 16.619686,7.5015064 23.685384,7.4840208 29.104167,11.7254 29.104167,21.75687 l -0.009,8.257642 v 0"
       id="path6623"
       inkscape:connector-curvature="0"
       sodipodi:nodetypes="ccsccc" />
    <path
       style="fill:none;stroke:#040481;stroke-width:0.23;stroke-linecap:butt;stroke-linejoin:miter;stroke-miterlimit:4;stroke-dasharray:none;stroke-opacity:1"
       d="M 5.2916667,20.739583 H 29.104167"
       id="path6625"
       inkscape:connector-curvature="0"
       sodipodi:nodetypes="cc" />
    <path
       style="opacity:0;fill:none;stroke:#000000;stroke-width:0.26499999;stroke-linecap:butt;stroke-linejoin:miter;stroke-miterlimit:4;stroke-dasharray:none;stroke-opacity:1"
       d="M 5.2916673,30 C 29.104167,30 29.104167,30 29.104167,30"
       id="path6636"
       inkscape:connector-curvature="0" />
    <path
       style="fill:#e6e6e6;fill-opacity:0.97637796;stroke:none;stroke-width:0.18740299;stroke-linecap:round;stroke-linejoin:round;stroke-miterlimit:4;stroke-dasharray:none;stroke-opacity:1"
       d="M 20.562688,95.873715 V 78.95058 H 64.972443 109.3822 V 95.873715 112.79685 H 64.972443 20.562688 Z"
       id="path6638"
       inkscape:connector-curvature="0"
       transform="scale(0.26458333)" />
    <rect
       style="fill:#0000ff;fill-rule:evenodd;stroke-width:0.25788394"
       id="rect6702"
       width="6.3499999"
       height="5.0270834"
       x="14.552084"
       y="11.214584"
       ry="0" />
    <circle
       style="opacity:1;fill:url(#linearGradient8304);fill-opacity:1;stroke:#040481;stroke-width:0.005;stroke-linecap:round;stroke-linejoin:round;stroke-miterlimit:4;stroke-dasharray:none;stroke-opacity:1"
       id="path8296"
       cx="17.594791"
       cy="14.125"
       r="1.7" />
    <path
       style="opacity:1;fill:#b3b3b3;fill-opacity:1;stroke:#040481;stroke-width:0.00472441;stroke-linecap:round;stroke-linejoin:round;stroke-miterlimit:4;stroke-dasharray:none;stroke-opacity:1"
       d="m 43.433152,95.718568 v -16.625 h 32.875 32.874998 v 16.625 16.625002 h -32.874998 -32.875 z"
       id="path8408"
       inkscape:connector-curvature="0"
       transform="scale(0.26458333)" />
    <path
       style="opacity:1;fill:#b3b3b3;fill-opacity:1;stroke:#040481;stroke-width:0.00472441;stroke-linecap:round;stroke-linejoin:round;stroke-miterlimit:4;stroke-dasharray:none;stroke-opacity:1"
       d="m 43.433152,95.718568 v -16.625 h 32.875 32.874998 v 16.625 16.625002 h -32.874998 -32.875 z"
       id="path8410"
       inkscape:connector-curvature="0"
       transform="scale(0.26458333)" />
    <path
       style="opacity:1;fill:#b3b3b3;fill-opacity:1;stroke:#040481;stroke-width:0.00472441;stroke-linecap:round;stroke-linejoin:round;stroke-miterlimit:4;stroke-dasharray:none;stroke-opacity:1"
       d="m 43.433152,95.718568 v -16.625 h 32.875 32.874998 v 16.625 16.625002 h -32.874998 -32.875 z"
       id="path8412"
       inkscape:connector-curvature="0"
       transform="scale(0.26458333)" />
    <path
       style="opacity:1;fill:#b3b3b3;fill-opacity:1;stroke:#040481;stroke-width:0.00472441;stroke-linecap:round;stroke-linejoin:round;stroke-miterlimit:4;stroke-dasharray:none;stroke-opacity:1"
       d="m 43.433152,95.718568 v -16.625 h 32.875 32.874998 v 16.625 16.625002 h -32.874998 -32.875 z"
       id="path8414"
       inkscape:connector-curvature="0"
       transform="scale(0.26458333)" />
    <path
       style="opacity:1;fill:#b3b3b3;fill-opacity:1;stroke:#040481;stroke-width:0.00472441;stroke-linecap:round;stroke-linejoin:round;stroke-miterlimit:4;stroke-dasharray:none;stroke-opacity:1"
       d="M 43.45174,61.96545 C 43.41327,49.125866 43.335792,45.824826 43.046873,44.71559 42.649058,43.188273 41.253592,40.2816 40.136746,38.653967 39.734968,38.068436 39.474389,37.4791 39.557681,37.34433 c 0.08613,-0.139365 -0.01588,-0.18083 -0.236544,-0.09615 -0.213391,0.08189 -0.387984,0.03149 -0.387984,-0.11199 0,-0.365735 3.728108,-2.790646 6.146101,-3.99767 5.272265,-2.631832 10.076485,-3.778245 16.644905,-3.971912 10.566243,-0.311542 19.069248,1.720172 26.775653,6.397794 7.91951,4.806971 14.122608,12.982627 17.422208,22.962382 1.00882,3.051235 1.2397,4.057315 0.76113,3.316785 -0.30836,-0.477155 -0.31702,-0.208828 -0.0186,0.576105 0.223,0.586532 0.18439,0.614302 -1.0625,0.7641 -0.71165,0.0855 -3.19395,0.156427 -5.51623,0.157622 l -4.222323,0.0023 0.15765,1.3125 c 0.08671,0.721875 0.158628,1.684765 0.159823,2.139755 0.0012,0.45499 0.106722,0.762638 0.234505,0.683665 0.137152,-0.08477 0.189955,0.44688 0.12889,1.297745 -0.07682,1.070455 -0.04443,1.280513 0.125872,0.816335 0.16508,-0.44993 0.207075,-0.09979 0.14992,1.25 -0.05695,1.344938 -0.02748,1.5923 0.104245,0.875 l 0.183643,-1 0.0878,1.25 c 0.04829,0.6875 0.09766,2.290625 0.10972,3.5625 l 0.02192,2.3125 h -2.58056 -2.580558 l 0.06202,-1.8125 c 0.101055,-2.95319 -0.368993,-11.418427 -0.586503,-10.5625 -0.15626,0.614895 -0.173995,0.558593 -0.09845,-0.312557 0.05151,-0.594035 -0.0076,-1.000908 -0.134075,-0.922745 -0.124417,0.07682 -0.226215,-0.03351 -0.226215,-0.245258 0,-0.211745 -0.253125,-0.436307 -0.5625,-0.499027 -0.741222,-0.15027 -11.692317,-0.368835 -11.125,-0.222035 0.403975,0.104532 0.4375,0.667365 0.4375,7.344875 v 7.23167 h -7.375 -7.375 v -7.25 -7.25 h -4.47307 -4.47307 l -0.409639,1.6875 c -0.592387,2.440327 -0.722055,3.298402 -0.689458,4.5625 0.01703,0.660555 -0.0542,0.99103 -0.172551,0.800495 -0.110857,-0.178478 -0.148396,1.424647 -0.08342,3.5625 l 0.118139,3.887005 h -1.408466 -1.408466 l 0.02492,-1.0625 c 0.02182,-0.930475 0.05212,-0.984838 0.243817,-0.4375 0.133614,0.381497 0.188247,-1.469113 0.140227,-4.75 -0.08431,-5.760055 0.0092,-7.53121 0.3678,-6.965255 0.14661,0.231397 0.216805,0.08031 0.219408,-0.472245 l 0.0038,-0.8125 -2.8125,0.0053 -2.8125,0.0053 -0.652258,0.932162 c -0.358743,0.51269 -0.773599,1.325913 -0.921903,1.807163 -0.515696,1.67344 -1.097111,6.640852 -1.075359,9.1875 l 0.02189,2.5625 h -0.715568 -0.715603 z m 10.471627,14.162923 c -0.0054,-0.225393 -0.172037,-0.03624 -0.370345,0.420327 -0.227249,0.523203 -0.468996,0.763113 -0.653842,0.648873 -0.196273,-0.121305 -0.225982,-0.07237 -0.08982,0.14795 0.156686,0.253522 0.309258,0.19856 0.663627,-0.239068 0.25309,-0.312555 0.455761,-0.752692 0.450379,-0.978082 z m 40.192078,1.064152 c -0.08307,-0.08307 -0.2987,-0.09195 -0.479168,-0.01973 -0.199432,0.07981 -0.140195,0.139045 0.151043,0.15104 0.26354,0.01085 0.411197,-0.04823 0.328125,-0.131305 z m -1.23321,-0.587587 C 92.7144,76.33619 92.528665,76.164723 92.46949,76.223895 c -0.107148,0.10715 0.437685,0.869673 0.621392,0.869673 0.05308,0 -0.04081,-0.219883 -0.208647,-0.48863 z M 54.103931,75.046693 c -0.07981,-0.199433 -0.139046,-0.140195 -0.151042,0.151042 -0.01085,0.26354 0.04823,0.411198 0.131305,0.328125 0.08307,-0.08307 0.09196,-0.2987 0.01974,-0.479167 z m 43.008616,-1.387188 c -0.05746,-0.380015 -0.106015,-0.128437 -0.107892,0.559063 -0.0018,0.6875 0.04514,0.998422 0.10448,0.690937 0.05934,-0.307485 0.06088,-0.869985 0.0034,-1.25 z m -42.763824,0.121563 c -0.06935,-0.171875 -0.126097,-0.03125 -0.126097,0.3125 0,0.34375 0.05674,0.484375 0.126097,0.3125 0.06935,-0.171875 0.06935,-0.453125 0,-0.625 z m 0.256761,-1.625 c -0.06288,-0.240625 -0.114331,-0.04375 -0.114331,0.4375 0,0.48125 0.05145,0.678125 0.114331,0.4375 0.06288,-0.240625 0.06288,-0.634375 0,-0.875 z m 20.361621,0.490815 c 0.926162,-0.48115 1.592415,-1.069968 2.153547,-1.903255 0.70398,-1.045413 0.810635,-1.411488 0.798533,-2.740813 -0.03164,-3.475845 -2.179625,-5.66773 -5.540503,-5.653757 -1.298992,0.0054 -3.21084,0.662517 -3.556962,1.222557 -0.09521,0.15406 -0.295225,0.20464 -0.44447,0.112403 -0.161955,-0.100095 -0.199438,-0.05135 -0.09297,0.120922 0.09811,0.158745 0.06733,0.288628 -0.06841,0.288628 -0.135738,0 -0.491013,0.646875 -0.789503,1.4375 -0.92189,2.441855 -0.2221,5.786232 1.361733,6.507875 0.35478,0.161647 0.645052,0.408817 0.645052,0.549265 0,0.140447 0.08437,0.2375 0.1875,0.21567 0.103125,-0.02182 0.35625,0.02551 0.5625,0.105192 0.882928,0.341123 1.185408,0.396053 2.283953,0.41476 0.809377,0.01377 1.563452,-0.190402 2.5,-0.676947 z M 52.859586,66.281068 c -0.05959,-0.309375 -0.108343,-0.05625 -0.108343,0.5625 0,0.61875 0.04875,0.871875 0.108343,0.5625 0.05959,-0.309375 0.05959,-0.815625 0,-1.125 z m 24.073566,-4.01077 c 0.559483,-0.09725 0.54638,-0.111808 -0.125,-0.138858 -0.904587,-0.03645 -1.506057,0.297818 -1.258027,0.699138 0.132345,0.214137 0.258615,0.192795 0.469527,-0.07937 0.158675,-0.20475 0.56975,-0.421163 0.9135,-0.480915 z m -8,0.19827 c 0,-0.30864 -0.387105,-0.365995 -2.1875,-0.324113 l -2.1875,0.05089 2.0625,0.08422 c 1.134375,0.04632 2.0625,0.192175 2.0625,0.324113 0,0.13194 0.05625,0.23989 0.125,0.23989 0.06875,0 0.125,-0.16875 0.125,-0.375 z m -7.302703,-0.559455 c -0.785236,-0.04945 -2.135236,-0.04986 -3,-10e-4 -0.864763,0.04896 -0.222297,0.08942 1.427703,0.08991 1.65,5e-4 2.357534,-0.03956 1.572297,-0.08901 z m 17.177703,-0.596198 c 0.15492,-0.151075 0.280903,-3.80463 0.331253,-9.606571 l 0.08125,-9.362776 H 67.082607 54.94456 l -0.0682,9.6875 -0.0682,9.6875 11.875,-0.08093 c 7.26232,-0.0495 11.97211,-0.175628 12.125,-0.324723 z m -24.19124,-5.656847 c -0.0515,-0.653125 -0.09364,-0.11875 -0.09364,1.1875 0,1.30625 0.04214,1.840625 0.09364,1.1875 0.0515,-0.653125 0.0515,-1.721875 0,-2.375 z m 50.055368,0.44837 c -0.4337,-1.12463 -0.83067,-2.002665 -0.88214,-1.95119 -0.0515,0.05148 0.25744,1.017555 0.68649,2.146842 0.42905,1.129288 0.82601,2.007323 0.88214,1.95119 0.0561,-0.05614 -0.25279,-1.022212 -0.68649,-2.146842 z m -2.2315,-4.93541 c -1.56151,-2.901219 -3.532828,-5.762302 -5.133453,-7.45046 -1.397107,-1.473514 -1.401192,-1.475721 -0.231315,-0.125 1.455735,1.680765 4.761558,6.681479 5.587038,8.451507 0.33269,0.713371 0.65498,1.246948 0.7162,1.185726 0.0612,-0.06122 -0.36109,-0.98902 -0.93847,-2.061773 z m -48.07224,-3.76296 c -0.0481,-0.928125 -0.08746,-0.16875 -0.08746,1.6875 0,1.85625 0.03936,2.615625 0.08746,1.6875 0.0481,-0.928125 0.0481,-2.446875 0,-3.375 z m 39.79569,-6.962379 c -0.333343,-0.357434 -1.056078,-0.992577 -1.606078,-1.41143 -0.596852,-0.454534 -0.39528,-0.197167 0.5,0.638396 1.594828,1.48845 2.107308,1.84662 1.106078,0.773034 z m -2.731078,-2.208098 c 0,-0.05939 -0.365625,-0.349934 -0.8125,-0.64566 l -0.8125,-0.537685 0.75,0.644419 c 0.769133,0.660859 0.875,0.726064 0.875,0.538926 z m -2.125,-1.543293 c -0.640365,-0.493552 -1.375,-0.898043 -1.375,-0.757076 0,0.127073 1.564458,1.151734 1.75,1.146183 0.06875,-0.002 -0.1,-0.177154 -0.375,-0.389107 z m -47.108486,-1.146317 0.608487,-0.494113 -0.766514,0.422587 c -0.421583,0.232423 -1.040333,0.644938 -1.375,0.9167 l -0.608486,0.494112 0.766513,-0.422586 c 0.421583,-0.232423 1.040333,-0.644938 1.375,-0.9167 z m 45.483486,0.175096 c 0,-0.151724 -4.41679,-2.38234 -4.682505,-2.36481 -0.148865,0.0098 4.350613,2.419864 4.620005,2.474602 0.03437,0.007 0.0625,-0.04242 0.0625,-0.109792 z m -43.75,-1.270101 c 0,-0.06875 -0.225,-0.0046 -0.5,0.142592 -0.274999,0.147175 -0.499999,0.323842 -0.499999,0.392592 0,0.06875 0.225,0.0046 0.499999,-0.142592 0.275,-0.147176 0.5,-0.323842 0.5,-0.392592 z m 2.892872,-1.547869 c -0.112311,-0.112312 -2.642872,1.148679 -2.642872,1.316956 0,0.06494 0.615607,-0.183849 1.368014,-0.552864 0.752407,-0.369016 1.326094,-0.712857 1.274858,-0.764092 z m 2.732128,-0.931326 c 1.2375,-0.473894 2.105746,-0.865358 1.929435,-0.869919 -0.380905,-0.0099 -4.304435,1.48035 -4.304435,1.634877 0,0.150604 -0.09971,0.182718 2.375,-0.764958 z m 31.625,0.621787 c -0.20625,-0.133289 -0.4875,-0.242344 -0.625,-0.242344 -0.1375,0 -0.08125,0.109055 0.125,0.242344 0.20625,0.133289 0.4875,0.242343 0.625,0.242343 0.1375,0 0.08125,-0.109054 -0.125,-0.242343 z m -3.625,-1.25 c -0.275,-0.118172 -0.66875,-0.214857 -0.875,-0.214857 -0.23637,0 -0.19016,0.07943 0.125,0.214857 0.275,0.118171 0.66875,0.214857 0.875,0.214857 0.23637,0 0.19016,-0.07943 -0.125,-0.214857 z m -23.5,-0.752783 c 0.9625,-0.27025 1.348183,-0.435096 0.857073,-0.366324 -0.973713,0.136352 -3.261527,0.807929 -2.857073,0.83868 0.1375,0.01045 1.0375,-0.202106 2,-0.472356 z m 22.057293,0.351741 c -0.08307,-0.08307 -0.2987,-0.09195 -0.479168,-0.01974 -0.199432,0.07981 -0.140195,0.139046 0.151043,0.151042 0.26354,0.01086 0.411197,-0.04823 0.328125,-0.131305 z m -1,-0.25 c -0.08307,-0.08307 -0.2987,-0.09195 -0.479168,-0.01974 -0.199432,0.07981 -0.140195,0.139046 0.151043,0.151042 0.26354,0.01086 0.411197,-0.04823 0.328125,-0.131305 z m -1.119793,-0.264528 c -0.171875,-0.06935 -0.453125,-0.06935 -0.625,0 -0.171875,0.06935 -0.03125,0.126096 0.3125,0.126096 0.34375,0 0.484375,-0.05674 0.3125,-0.126096 z m -1.25,-0.25 c -0.171875,-0.06935 -0.453125,-0.06935 -0.625,0 -0.171875,0.06935 -0.03125,0.126096 0.3125,0.126096 0.34375,0 0.484375,-0.05674 0.3125,-0.126096 z M 57.00041,29.929584 c -0.169258,-0.06848 -0.506758,-0.07265 -0.75,-0.0093 -0.243242,0.06339 -0.104758,0.119416 0.307742,0.124511 0.4125,0.0051 0.611516,-0.04677 0.442258,-0.115247 z m 14.5,0 c -0.169258,-0.06848 -0.506758,-0.07265 -0.75,-0.0093 -0.243243,0.06339 -0.104758,0.119416 0.307742,0.124511 0.4125,0.0051 0.611515,-0.04677 0.442258,-0.115247 z M 58.873567,29.671798 c -0.239022,-0.06257 -0.689022,-0.06484 -1,-0.005 -0.310978,0.0598 -0.115415,0.110994 0.434585,0.113769 0.55,0.0028 0.804437,-0.04615 0.565415,-0.108724 z m 11,0 c -0.239022,-0.06257 -0.689022,-0.06484 -1,-0.005 -0.310977,0.0598 -0.115415,0.110994 0.434585,0.113769 0.55,0.0028 0.804438,-0.04615 0.565415,-0.108724 z m -7.496306,-0.259953 c -0.511991,-0.05372 -1.411991,-0.05446 -2,-0.0016 -0.58801,0.05281 -0.169109,0.09676 0.930891,0.09767 1.1,9.08e-4 1.581099,-0.0423 1.069109,-0.09602 z m 4.751771,-0.0017 c -0.648515,-0.05131 -1.773515,-0.05184 -2.5,-0.0012 -0.726485,0.05066 -0.19588,0.09264 1.17912,0.09329 1.375,6.5e-4 1.969395,-0.0408 1.32088,-0.09211 z"
       id="path8416"
       inkscape:connector-curvature="0"
       transform="scale(0.26458333)" />
  </g>
  <g
     inkscape:groupmode="layer"
     id="layer3"
     inkscape:label="paintings"
     style="display:inline">
    <circle
       style="display:inline;fill:#ff2c1c;fill-opacity:0.97637796;stroke:none;stroke-width:0.3684786;stroke-linecap:round;stroke-linejoin:round;stroke-miterlimit:4;stroke-dasharray:none;stroke-opacity:1"
       id="path6627"
       cx="19.169016"
       cy="17.94014"
       r="1.4418726" />
    <path
       style="opacity:0;fill:#1900e5;fill-opacity:0.97637796;stroke:none;stroke-width:0.21592082;stroke-linecap:round;stroke-linejoin:round;stroke-miterlimit:4;stroke-dasharray:none;stroke-opacity:1"
       d="m 40.249,75.339593 c 0.209038,-3.944673 1.032706,-7.901679 2.189012,-10.516295 0.299825,-0.677954 0.545135,-1.317584 0.545135,-1.421399 0,-0.105249 -4.43498,-0.188757 -10.024533,-0.188757 H 22.934082 l -0.0028,2.533081 c -0.0026,2.377159 -0.0615,2.725494 -0.956758,5.65901 -1.092494,3.579797 -1.222711,3.275373 -0.55125,-1.288724 0.990672,-6.73387 2.65786,-12.421936 5.158234,-17.598728 2.423699,-5.018044 4.662983,-8.22745 8.385628,-12.018527 5.711096,-5.81608 12.641877,-9.404654 21.166446,-10.959424 3.316471,-0.604882 10.407916,-0.64514 14.55174,-0.08261 14.216069,1.929848 24.840653,8.82042 31.439178,20.389881 3.86627,6.778879 6.47293,16.311334 6.97094,25.492493 l 0.13741,2.53308 H 74.673821 40.114765 Z m 29.031694,-7.510421 c 1.899711,-1.033954 2.949805,-3.043051 2.748847,-5.259247 -0.26576,-2.93086 -2.489867,-4.957685 -5.440238,-4.957685 -3.333082,0 -5.711925,2.584924 -5.444524,5.916184 0.327043,4.07426 4.499555,6.279903 8.135915,4.300748 z"
       id="path6646"
       inkscape:connector-curvature="0"
       transform="scale(0.26458333)" />
    <path
       style="opacity:0;fill:#1900e5;fill-opacity:0.97637796;stroke:none;stroke-width:0.21592082;stroke-linecap:round;stroke-linejoin:round;stroke-miterlimit:4;stroke-dasharray:none;stroke-opacity:1"
       d="m 40.249,75.339593 c 0.209038,-3.944673 1.032706,-7.901679 2.189012,-10.516295 0.299825,-0.677954 0.545135,-1.317584 0.545135,-1.421399 0,-0.105249 -4.43498,-0.188757 -10.024533,-0.188757 H 22.934082 l -0.0028,2.533081 c -0.0026,2.377159 -0.0615,2.725494 -0.956758,5.65901 -1.092494,3.579797 -1.222711,3.275373 -0.55125,-1.288724 0.990672,-6.73387 2.65786,-12.421936 5.158234,-17.598728 2.423699,-5.018044 4.662983,-8.22745 8.385628,-12.018527 5.711096,-5.81608 12.641877,-9.404654 21.166446,-10.959424 3.316471,-0.604882 10.407916,-0.64514 14.55174,-0.08261 14.216069,1.929848 24.840653,8.82042 31.439178,20.389881 3.86627,6.778879 6.47293,16.311334 6.97094,25.492493 l 0.13741,2.53308 H 74.673821 40.114765 Z m 29.031694,-7.510421 c 1.899711,-1.033954 2.949805,-3.043051 2.748847,-5.259247 -0.26576,-2.93086 -2.489867,-4.957685 -5.440238,-4.957685 -3.333082,0 -5.711925,2.584924 -5.444524,5.916184 0.327043,4.07426 4.499555,6.279903 8.135915,4.300748 z"
       id="path6648"
       inkscape:connector-curvature="0"
       transform="scale(0.26458333)" />
    <path
       style="opacity:0;fill:#1900e5;fill-opacity:0.97637796;stroke:none;stroke-width:0.21592082;stroke-linecap:round;stroke-linejoin:round;stroke-miterlimit:4;stroke-dasharray:none;stroke-opacity:1"
       d="m 40.249,75.339593 c 0.209038,-3.944673 1.032706,-7.901679 2.189012,-10.516295 0.299825,-0.677954 0.545135,-1.317584 0.545135,-1.421399 0,-0.105249 -4.43498,-0.188757 -10.024533,-0.188757 H 22.934082 l -0.0028,2.533081 c -0.0026,2.377159 -0.0615,2.725494 -0.956758,5.65901 -1.092494,3.579797 -1.222711,3.275373 -0.55125,-1.288724 0.990672,-6.73387 2.65786,-12.421936 5.158234,-17.598728 2.423699,-5.018044 4.662983,-8.22745 8.385628,-12.018527 5.711096,-5.81608 12.641877,-9.404654 21.166446,-10.959424 3.316471,-0.604882 10.407916,-0.64514 14.55174,-0.08261 14.216069,1.929848 24.840653,8.82042 31.439178,20.389881 3.86627,6.778879 6.47293,16.311334 6.97094,25.492493 l 0.13741,2.53308 H 74.673821 40.114765 Z m 29.031694,-7.510421 c 1.899711,-1.033954 2.949805,-3.043051 2.748847,-5.259247 -0.26576,-2.93086 -2.489867,-4.957685 -5.440238,-4.957685 -3.333082,0 -5.711925,2.584924 -5.444524,5.916184 0.327043,4.07426 4.499555,6.279903 8.135915,4.300748 z"
       id="path6650"
       inkscape:connector-curvature="0"
       transform="scale(0.26458333)" />
    <path
       style="opacity:0;fill:#1900e5;fill-opacity:0.97637796;stroke:none;stroke-width:0.21592082;stroke-linecap:round;stroke-linejoin:round;stroke-miterlimit:4;stroke-dasharray:none;stroke-opacity:1"
       d="m 40.249,75.339593 c 0.209038,-3.944673 1.032706,-7.901679 2.189012,-10.516295 0.299825,-0.677954 0.545135,-1.317584 0.545135,-1.421399 0,-0.105249 -4.43498,-0.188757 -10.024533,-0.188757 H 22.934082 l -0.0028,2.533081 c -0.0026,2.377159 -0.0615,2.725494 -0.956758,5.65901 -1.092494,3.579797 -1.222711,3.275373 -0.55125,-1.288724 0.990672,-6.73387 2.65786,-12.421936 5.158234,-17.598728 2.423699,-5.018044 4.662983,-8.22745 8.385628,-12.018527 5.711096,-5.81608 12.641877,-9.404654 21.166446,-10.959424 3.316471,-0.604882 10.407916,-0.64514 14.55174,-0.08261 14.216069,1.929848 24.840653,8.82042 31.439178,20.389881 3.86627,6.778879 6.47293,16.311334 6.97094,25.492493 l 0.13741,2.53308 H 74.673821 40.114765 Z m 29.031694,-7.510421 c 1.899711,-1.033954 2.949805,-3.043051 2.748847,-5.259247 -0.26576,-2.93086 -2.489867,-4.957685 -5.440238,-4.957685 -3.333082,0 -5.711925,2.584924 -5.444524,5.916184 0.327043,4.07426 4.499555,6.279903 8.135915,4.300748 z"
       id="path6652"
       inkscape:connector-curvature="0"
       transform="scale(0.26458333)" />
    <path
       style="opacity:0;fill:#1900e5;fill-opacity:0.97637796;stroke:none;stroke-width:0.21592082;stroke-linecap:round;stroke-linejoin:round;stroke-miterlimit:4;stroke-dasharray:none;stroke-opacity:1"
       d="m 40.249,75.339593 c 0.209038,-3.944673 1.032706,-7.901679 2.189012,-10.516295 0.299825,-0.677954 0.545135,-1.317584 0.545135,-1.421399 0,-0.105249 -4.43498,-0.188757 -10.024533,-0.188757 H 22.934082 l -0.0028,2.533081 c -0.0026,2.377159 -0.0615,2.725494 -0.956758,5.65901 -1.092494,3.579797 -1.222711,3.275373 -0.55125,-1.288724 0.990672,-6.73387 2.65786,-12.421936 5.158234,-17.598728 2.423699,-5.018044 4.662983,-8.22745 8.385628,-12.018527 5.711096,-5.81608 12.641877,-9.404654 21.166446,-10.959424 3.316471,-0.604882 10.407916,-0.64514 14.55174,-0.08261 14.216069,1.929848 24.840653,8.82042 31.439178,20.389881 3.86627,6.778879 6.47293,16.311334 6.97094,25.492493 l 0.13741,2.53308 H 74.673821 40.114765 Z m 29.031694,-7.510421 c 1.899711,-1.033954 2.949805,-3.043051 2.748847,-5.259247 -0.26576,-2.93086 -2.489867,-4.957685 -5.440238,-4.957685 -3.333082,0 -5.711925,2.584924 -5.444524,5.916184 0.327043,4.07426 4.499555,6.279903 8.135915,4.300748 z"
       id="path6654"
       inkscape:connector-curvature="0"
       transform="scale(0.26458333)" />
    <path
       style="opacity:0;fill:#1900e5;fill-opacity:0.97637796;stroke:none;stroke-width:0.21592082;stroke-linecap:round;stroke-linejoin:round;stroke-miterlimit:4;stroke-dasharray:none;stroke-opacity:1"
       d="m 40.249,75.339593 c 0.209038,-3.944673 1.032706,-7.901679 2.189012,-10.516295 0.299825,-0.677954 0.545135,-1.317584 0.545135,-1.421399 0,-0.105249 -4.43498,-0.188757 -10.024533,-0.188757 H 22.934082 l -0.0028,2.533081 c -0.0026,2.377159 -0.0615,2.725494 -0.956758,5.65901 -1.092494,3.579797 -1.222711,3.275373 -0.55125,-1.288724 0.990672,-6.73387 2.65786,-12.421936 5.158234,-17.598728 2.423699,-5.018044 4.662983,-8.22745 8.385628,-12.018527 5.711096,-5.81608 12.641877,-9.404654 21.166446,-10.959424 3.316471,-0.604882 10.407916,-0.64514 14.55174,-0.08261 14.216069,1.929848 24.840653,8.82042 31.439178,20.389881 3.86627,6.778879 6.47293,16.311334 6.97094,25.492493 l 0.13741,2.53308 H 74.673821 40.114765 Z m 29.031694,-7.510421 c 1.899711,-1.033954 2.949805,-3.043051 2.748847,-5.259247 -0.26576,-2.93086 -2.489867,-4.957685 -5.440238,-4.957685 -3.333082,0 -5.711925,2.584924 -5.444524,5.916184 0.327043,4.07426 4.499555,6.279903 8.135915,4.300748 z"
       id="path6656"
       inkscape:connector-curvature="0"
       transform="scale(0.26458333)" />
    <path
       style="opacity:0;fill:#1900e5;fill-opacity:0.97637796;stroke:none;stroke-width:0.21592082;stroke-linecap:round;stroke-linejoin:round;stroke-miterlimit:4;stroke-dasharray:none;stroke-opacity:1"
       d="m 40.249,75.339593 c 0.209038,-3.944673 1.032706,-7.901679 2.189012,-10.516295 0.299825,-0.677954 0.545135,-1.317584 0.545135,-1.421399 0,-0.105249 -4.43498,-0.188757 -10.024533,-0.188757 H 22.934082 l -0.0028,2.533081 c -0.0026,2.377159 -0.0615,2.725494 -0.956758,5.65901 -1.092494,3.579797 -1.222711,3.275373 -0.55125,-1.288724 0.990672,-6.73387 2.65786,-12.421936 5.158234,-17.598728 2.423699,-5.018044 4.662983,-8.22745 8.385628,-12.018527 5.711096,-5.81608 12.641877,-9.404654 21.166446,-10.959424 3.316471,-0.604882 10.407916,-0.64514 14.55174,-0.08261 14.216069,1.929848 24.840653,8.82042 31.439178,20.389881 3.86627,6.778879 6.47293,16.311334 6.97094,25.492493 l 0.13741,2.53308 H 74.673821 40.114765 Z m 29.031694,-7.510421 c 1.899711,-1.033954 2.949805,-3.043051 2.748847,-5.259247 -0.26576,-2.93086 -2.489867,-4.957685 -5.440238,-4.957685 -3.333082,0 -5.711925,2.584924 -5.444524,5.916184 0.327043,4.07426 4.499555,6.279903 8.135915,4.300748 z"
       id="path6658"
       inkscape:connector-curvature="0"
       transform="scale(0.26458333)" />
    <path
       style="fill:none;stroke:#000000;stroke-width:0.01;stroke-linecap:butt;stroke-linejoin:miter;stroke-miterlimit:4;stroke-dasharray:none;stroke-opacity:1"
       d="m 5.8208333,16.770833 c 5.5562497,0 5.5562497,0 5.5562497,0 v 0 c 0,0 -0.79375,1.5875 -0.79375,3.96875"
       id="path6664"
       inkscape:connector-curvature="0" />
    <path
       style="opacity:0;fill:#1900e5;fill-opacity:0.97637796;stroke:none;stroke-width:0.00203699;stroke-linecap:round;stroke-linejoin:round;stroke-miterlimit:4;stroke-dasharray:none;stroke-opacity:1"
       d="m 20.771969,75.470311 c -0.005,-0.301732 0.132661,-1.8246 0.294814,-3.260667 0.309734,-2.743079 0.818366,-5.729995 1.378943,-8.097774 l 0.162687,-0.687166 h 0.184174 0.184174 v 2.48047 2.48047 l -1.053196,3.515386 c -1.239697,4.137896 -1.146912,3.850317 -1.151596,3.569281 z"
       id="path6666"
       inkscape:connector-curvature="0"
       transform="scale(0.26458333)" />
    <path
       style="opacity:0;fill:#1900e5;fill-opacity:0.97637796;stroke:none;stroke-width:0.00203699;stroke-linecap:round;stroke-linejoin:round;stroke-miterlimit:4;stroke-dasharray:none;stroke-opacity:1"
       d="m 20.771969,75.470311 c -0.005,-0.301732 0.132661,-1.8246 0.294814,-3.260667 0.309734,-2.743079 0.818366,-5.729995 1.378943,-8.097774 l 0.162687,-0.687166 h 0.184174 0.184174 v 2.48047 2.48047 l -1.053196,3.515386 c -1.239697,4.137896 -1.146912,3.850317 -1.151596,3.569281 z"
       id="path6668"
       inkscape:connector-curvature="0"
       transform="scale(0.26458333)" />
    <path
       style="opacity:0;fill:#1900e5;fill-opacity:0.97637796;stroke:none;stroke-width:0.00203699;stroke-linecap:round;stroke-linejoin:round;stroke-miterlimit:4;stroke-dasharray:none;stroke-opacity:1"
       d="m 20.771969,75.470311 c -0.005,-0.301732 0.132661,-1.8246 0.294814,-3.260667 0.309734,-2.743079 0.818366,-5.729995 1.378943,-8.097774 l 0.162687,-0.687166 h 0.184174 0.184174 v 2.48047 2.48047 l -1.053196,3.515386 c -1.239697,4.137896 -1.146912,3.850317 -1.151596,3.569281 z"
       id="path6670"
       inkscape:connector-curvature="0"
       transform="scale(0.26458333)" />
    <path
       style="opacity:0;fill:#0000ff;fill-opacity:0.97637796;stroke:none;stroke-width:0.00203699;stroke-linecap:round;stroke-linejoin:round;stroke-miterlimit:4;stroke-dasharray:none;stroke-opacity:1"
       d="m 20.625501,77.558756 c 0.01709,-0.200087 0.04565,-0.642702 0.06347,-0.98359 0.204787,-3.91858 0.897819,-8.835286 1.756759,-12.463296 l 0.162687,-0.687166 h 10.154811 c 5.585146,0 10.154811,0.0091 10.154811,0.02022 0,0.01112 -0.08149,0.199081 -0.18109,0.417689 -0.909038,1.995221 -1.863668,5.472172 -2.321351,8.454822 -0.228051,1.486167 -0.460257,4.177458 -0.461526,5.349112 l -2.77e-4,0.256003 H 30.274113 20.59443 Z"
       id="path6674"
       inkscape:connector-curvature="0"
       transform="scale(0.26458333)" />
    <path
       style="opacity:1;fill:#0000ff;fill-opacity:0.97637796;stroke:none;stroke-width:0.00203699;stroke-linecap:round;stroke-linejoin:round;stroke-miterlimit:4;stroke-dasharray:none;stroke-opacity:1"
       d="m 20.625501,77.558756 c 0.01709,-0.200087 0.04565,-0.642702 0.06347,-0.98359 0.204787,-3.91858 0.897819,-8.835286 1.756759,-12.463296 l 0.162687,-0.687166 h 10.154811 c 5.585146,0 10.154811,0.0091 10.154811,0.02022 0,0.01112 -0.08149,0.199081 -0.18109,0.417689 -0.909038,1.995221 -1.863668,5.472172 -2.321351,8.454822 -0.228051,1.486167 -0.460257,4.177458 -0.461526,5.349112 l -2.77e-4,0.256003 H 30.274113 20.59443 Z"
       id="path6676"
       inkscape:connector-curvature="0"
       transform="scale(0.26458333)" />
    <path
       style="fill:none;stroke:#000000;stroke-width:0.005;stroke-linecap:butt;stroke-linejoin:miter;stroke-miterlimit:4;stroke-dasharray:none;stroke-opacity:1"
       d="m 11.90625,20.739583 c 0,-3.96875 0.79375,-3.96875 0.79375,-3.96875 0,0 1.322916,0 1.322916,0 0,0 -0.281223,0.1128 -0.264583,3.96875"
       id="path6678"
       inkscape:connector-curvature="0" />
    <path
       style="opacity:1;fill:#0000ff;fill-opacity:0.97637796;stroke:none;stroke-width:0.00101849;stroke-linecap:round;stroke-linejoin:round;stroke-miterlimit:4;stroke-dasharray:none;stroke-opacity:1"
       d="m 45.04844,76.832923 c 0.08736,-4.53266 0.404715,-7.686425 1.011813,-10.055159 0.443045,-1.728644 1.06436,-2.920266 1.696184,-3.253118 l 0.237532,-0.125135 h 2.467677 2.467679 l -0.100034,0.229055 c -0.5039,1.153825 -0.861143,6.30541 -0.863349,12.449823 l -6.72e-4,1.872862 h -3.469193 -3.469192 z"
       id="path6680"
       inkscape:connector-curvature="0"
       transform="scale(0.26458333)" />
    <path
       style="opacity:1;fill:#0000ff;fill-opacity:0.97637796;stroke:none;stroke-width:0.00032225;stroke-linecap:round;stroke-linejoin:round;stroke-miterlimit:4;stroke-dasharray:none;stroke-opacity:1"
       d="m 14.927762,16.770833 h 1.690385 0.57977 c 0,1.322917 -0.01015,2.573572 -0.01087,3.850144 h -1.312603 -1.312601 c -0.01244,-1.468894 -0.01244,-2.527227 0.365911,-3.850144 z"
       id="path6680-6"
       inkscape:connector-curvature="0"
       sodipodi:nodetypes="ccccccc" />
    <path
       style="opacity:1;fill:#0000ff;fill-opacity:0.97637796;stroke:none;stroke-width:0.00032225;stroke-linecap:round;stroke-linejoin:round;stroke-miterlimit:4;stroke-dasharray:none;stroke-opacity:1"
       d="m 21.542345,16.770833 h 1.690385 0.57977 c 0,1.322917 -0.01015,2.573572 -0.01087,3.850144 h -1.312603 -1.312601 c -0.01244,-1.468894 -0.0098,-2.527227 -0.0098,-3.850144 z"
       id="path6680-6-7"
       inkscape:connector-curvature="0"
       sodipodi:nodetypes="cccccccc" />
    <path
       sodipodi:nodetypes="cccccccc"
       inkscape:connector-curvature="0"
       id="path8336"
       d="m 21.542345,16.770833 h 1.690385 l 0.860403,0.02339 c 0.233861,1.322917 0.293869,2.620344 0.293149,3.896916 l -1.897255,-0.07016 h -1.312601 c -0.01244,-1.468894 -0.0098,-2.527227 -0.0098,-3.850144 z"
       style="opacity:1;fill:#0000ff;fill-opacity:0.97637796;stroke:none;stroke-width:0.00032225;stroke-linecap:round;stroke-linejoin:round;stroke-miterlimit:4;stroke-dasharray:none;stroke-opacity:1" />
    <path
       sodipodi:nodetypes="cccccccc"
       inkscape:connector-curvature="0"
       id="path8336-5"
       d="m 26.040262,16.770833 h 1.690385 l 0.698626,0.001 c 0.272851,1.314648 0.514383,2.577456 0.513663,3.854028 l -1.955992,-0.0049 h -1.148898 c -0.01244,-1.468894 -0.196889,-2.410297 -0.43075,-3.850144 z"
       style="opacity:1;fill:#0000ff;fill-opacity:0.97637796;stroke:none;stroke-width:0.00032225;stroke-linecap:round;stroke-linejoin:round;stroke-miterlimit:4;stroke-dasharray:none;stroke-opacity:1" />
    <path
       style="opacity:1;fill:#cccccc;fill-opacity:0.82283469;stroke:#040481;stroke-width:0.01889764;stroke-linecap:round;stroke-linejoin:round;stroke-miterlimit:4;stroke-dasharray:none;stroke-opacity:1"
       d="m 40.770157,73.073305 c 0.367696,-2.377441 1.05324,-5.364416 1.52343,-6.637721 0.470191,-1.273304 0.854892,-2.510804 0.854892,-2.75 0,-0.239195 -4.530324,-0.4349 -10.067388,-0.4349 -11.607401,0 -11.250415,0.64344 -5.876568,-10.592072 8.654049,-18.093679 27.178355,-26.736547 47.202888,-22.023406 15.578752,3.666745 25.781079,12.699009 30.790559,27.259327 l 1.84279,5.356151 h -5.54763 -5.547634 l 0.702983,7 0.702983,7 H 94.79566 c -2.45944,0 -2.56695,-0.254496 -2.851491,-6.75 l -0.29569,-6.75 -6.25,-0.297717 -6.25,-0.297718 v 7.047718 7.047717 h -7 -7 v -7 -7 h -4.432612 c -4.940259,0 -4.987156,0.06739 -6.088892,8.75 -1.031882,8.132102 -2.890627,6.594216 -2.115114,-1.75 l 0.650582,-7 h -2.947965 c -3.697228,0 -4.418907,1.142015 -5.055478,8 -0.443302,4.775831 -0.809857,5.542479 -2.783951,5.822621 -2.147415,0.304739 -2.236373,0.08302 -1.604892,-4 z m 35.806893,-1.39405 c 2.015229,-2.015228 2.015229,-5.841914 0,-7.857142 -1.428571,-1.428572 -1.383116,-1.571429 0.5,-1.571429 1.957143,0 2.071429,-0.551724 2.071429,-10 v -10 H 66.612267 54.076055 l 0.286212,9.75 0.286212,9.75 7.168818,0.292171 7.168819,0.292171 -1.339689,2.582251 c -1.325858,2.555594 -1.094006,4.661832 0.779731,7.083407 1.355774,1.752171 6.271129,1.558335 8.150892,-0.321429 z"
       id="path8353"
       inkscape:connector-curvature="0"
       transform="scale(0.26458333)" />
    <path
       style="opacity:1;fill:#cccccc;fill-opacity:0.82283469;stroke:#040481;stroke-width:0.01889764;stroke-linecap:round;stroke-linejoin:round;stroke-miterlimit:4;stroke-dasharray:none;stroke-opacity:1"
       d="M 21.148479,95.750683 V 79.250684 h 44 44.000001 v 16.499999 16.499997 h -44.000001 -44 z"
       id="path8355"
       inkscape:connector-curvature="0"
       transform="scale(0.26458333)" />
    <path
       style="opacity:1;fill:#ffffff;fill-opacity:1;stroke:#040481;stroke-width:0.00472441;stroke-linecap:round;stroke-linejoin:round;stroke-miterlimit:4;stroke-dasharray:none;stroke-opacity:1"
       d="m 43.433152,95.718568 v -16.625 h 32.875 32.874998 v 16.625 16.625002 h -32.874998 -32.875 z"
       id="path8404"
       inkscape:connector-curvature="0"
       transform="scale(0.26458333)" />
    <path
       style="opacity:1;fill:#ffffff;fill-opacity:1;stroke:#040481;stroke-width:0.00472441;stroke-linecap:round;stroke-linejoin:round;stroke-miterlimit:4;stroke-dasharray:none;stroke-opacity:1"
       d="m 52.591246,76.781068 c -0.279351,-1.046013 0.06631,-10.175863 0.477989,-12.625 l 0.136574,-0.8125 h -2.743127 -2.743128 l -0.732843,0.889065 c -0.844934,1.025052 -1.213849,2.122117 -1.424438,4.235935 -0.08219,0.825 -0.214787,1.78125 -0.294659,2.125 -0.07987,0.34375 -0.169641,1.1875 -0.199488,1.875 -0.0745,1.71602 -0.591566,3.508222 -1.160775,4.02335 C 43.442245,76.912833 43.433095,76.6267 43.430185,61.569815 43.427794,49.198842 43.35915,45.962871 43.076604,44.901483 42.61145,43.154127 41.396109,40.591204 40.205645,38.847174 l -0.965293,-1.414154 2.283901,-1.512378 c 10.226958,-6.772203 23.045292,-8.33577 36.155504,-4.410212 7.660325,2.293711 14.073145,6.167615 18.896683,11.415245 2.200517,2.393991 5.06063,6.714632 6.57115,9.926734 1.07661,2.289396 3.78556,9.633136 3.78556,10.262336 0,0.131463 -2.32911,0.228823 -5.47412,0.228823 h -5.474123 l 0.0948,1.1875 c 0.05214,0.653125 0.253922,2.70625 0.448407,4.5625 0.194485,1.85625 0.36064,3.54375 0.369233,3.75 0.04176,1.00254 0.279757,3.15333 0.419167,3.78806 l 0.156368,0.71194 h -1.75359 c -2.275103,0 -2.92334,-0.25955 -3.239308,-1.296995 -0.243612,-0.799875 -0.57763,-5.622575 -0.685955,-9.904113 -0.07138,-2.821455 0.0018,-2.779385 -4.860875,-2.797142 -2.13125,-0.0078 -4.746875,-0.04212 -5.8125,-0.0763 l -1.9375,-0.06214 v 7.068345 7.068345 h -7 -7 V 70.3378 63.33203 l -4.422841,0.06827 -4.422841,0.06827 -0.448036,1.5 c -0.410077,1.372917 -1.062851,5.03552 -1.336701,7.5 -0.396606,3.569212 -1.507639,6.011912 -1.961487,4.3125 z M 74.24616,72.98688 c 1.37046,-0.48907 2.620297,-1.5325 3.202415,-2.673542 1.02544,-2.01003 0.493932,-5.22888 -1.106463,-6.700848 -0.950985,-0.87467 -0.825737,-1.182382 0.555863,-1.36566 2.240997,-0.297277 2.149212,0.135835 2.236625,-10.554169 l 0.07645,-9.349093 H 66.6971 54.183152 l -0.0296,1.4375 c -0.01628,0.790625 -0.01827,1.51592 -0.0044,1.611767 0.01386,0.09585 0.08001,2.177097 0.146997,4.625 0.06699,2.447903 0.194214,6.110108 0.282717,8.138233 l 0.160914,3.6875 1.034194,0.0046 c 0.568807,0.0025 2.384194,0.05669 4.034194,0.120417 1.65,0.06373 4.331977,0.16553 5.959949,0.226233 1.62797,0.0607 3.00523,0.155647 3.060575,0.210992 0.05535,0.05535 -0.313275,0.935868 -0.819155,1.956718 -1.250645,2.523757 -1.385482,4.219215 -0.48235,6.065152 0.823308,1.682778 1.355435,2.16238 2.843328,2.562673 1.537265,0.413575 2.710055,0.41254 3.87566,-0.0034 z"
       id="path8406"
       inkscape:connector-curvature="0"
       transform="scale(0.26458333)" />
    <path
       style="opacity:1;fill:#b3b3b3;fill-opacity:1;stroke:#040481;stroke-width:0.00472441;stroke-linecap:round;stroke-linejoin:round;stroke-miterlimit:4;stroke-dasharray:none;stroke-opacity:1"
       d="m 43.433152,95.718568 v -16.625 h 32.875 32.874998 v 16.625 16.625002 h -32.874998 -32.875 z"
       id="path8418"
       inkscape:connector-curvature="0"
       transform="scale(0.26458333)" />
    <path
       style="opacity:1;fill:#b3b3b3;fill-opacity:1;stroke:#040481;stroke-width:0.00472441;stroke-linecap:round;stroke-linejoin:round;stroke-miterlimit:4;stroke-dasharray:none;stroke-opacity:1"
       d="m 52.78,76.985353 c -0.195574,-0.509658 0.05845,-10.977685 0.305256,-12.579285 l 0.163731,-1.0625 h -2.805344 c -2.599567,0 -2.840749,0.04126 -3.288011,0.5625 -1.19338,1.390767 -1.531354,2.72144 -2.227958,8.771942 -0.139907,1.215195 -0.447803,2.565195 -0.684213,3 l -0.429836,0.790558 -0.161015,-1.625 c -0.08856,-0.89375 -0.174165,-7.70449 -0.190237,-15.134975 -0.02396,-11.079748 -0.0961,-13.766739 -0.401007,-14.93736 -0.413923,-1.58916 -1.795891,-4.472367 -2.949298,-6.153135 -0.88343,-1.287353 -1.103107,-0.998753 2.446085,-3.213526 4.341754,-2.70935 8.888998,-4.388076 14.499999,-5.353028 2.603133,-0.447674 3.661447,-0.497464 8,-0.376377 3.523305,0.09834 5.70143,0.284483 7.375,0.630289 9.76438,2.017589 16.85471,5.604101 22.770888,11.518228 5.05915,5.057395 7.5998,9.446433 10.8088,18.672439 l 0.87914,2.527557 -1.89213,0.159943 c -1.04068,0.08797 -3.50641,0.159945 -5.479418,0.159945 -2.703217,0 -3.587252,0.07701 -3.587167,0.3125 2.5e-4,0.951642 1.253622,12.906342 1.390417,13.262825 0.139713,0.364082 -0.01028,0.423825 -1.051282,0.41871 -1.63502,-0.008 -3.137448,-0.37983 -3.4915,-0.864028 -0.349363,-0.477782 -0.560043,-2.593605 -0.81925,-8.227567 -0.169905,-3.692925 -0.252583,-4.2652 -0.659168,-4.5625 -0.32219,-0.235593 -1.27518,-0.34025 -3.104612,-0.340955 -1.451845,-5e-4 -4.074093,-0.07417 -5.827218,-0.16358 l -3.1875,-0.162565 v 7.16358 7.16358 h -7 -7 v -7 -7 H 60.716096 56.24904 l -0.3956,1.4375 c -0.436838,1.587345 -1.053546,4.9337 -1.301567,7.0625 -0.242767,2.08371 -0.828483,4.48303 -1.236638,5.065752 -0.338135,0.482758 -0.37704,0.488283 -0.535235,0.07603 z m 22.028152,-4.237608 c 2.25833,-1.067627 3.146515,-2.449972 3.158308,-4.915502 0.0074,-1.54105 -0.454035,-2.884783 -1.429888,-4.16419 -0.34711,-0.455085 -0.571372,-0.924085 -0.49836,-1.042223 0.07301,-0.118135 0.599115,-0.277345 1.169115,-0.3538 0.570003,-0.07645 1.148698,-0.251335 1.285988,-0.388625 0.533115,-0.533115 0.668452,-2.72125 0.67895,-10.977337 l 0.01089,-8.5625 h -12.5 -12.5 l 0.0088,4.3125 c 0.01,4.873775 0.390596,14.920242 0.572171,15.101817 0.06571,0.06571 3.196241,0.23514 6.956741,0.37652 3.760503,0.141378 6.882715,0.30109 6.938255,0.354918 0.05554,0.05383 -0.27628,0.91493 -0.737372,1.913557 -1.097005,2.375885 -1.244755,4.127568 -0.495125,5.870125 0.30081,0.699253 0.808417,1.517028 1.12802,1.817275 1.412162,1.32666 4.214702,1.621308 6.253497,0.657465 z"
       id="path8420"
       inkscape:connector-curvature="0"
       transform="scale(0.26458333)" />
    <path
       style="opacity:1;fill:#ececec;fill-opacity:1;stroke:#040481;stroke-width:0.00472441;stroke-linecap:round;stroke-linejoin:round;stroke-miterlimit:4;stroke-dasharray:none;stroke-opacity:1"
       d="m 43.433152,112.59357 c 0,-0.1654 11.125,-0.25 32.875,-0.25 H 109.18315 V 95.71949 79.095412 l -32.937498,-0.06435 -32.937499,-0.06435 33.062499,-0.06157 33.062498,-0.06157 v 17 16.999998 H 76.433152 c -21.833333,0 -33,-0.0846 -33,-0.25 z"
       id="path8422"
       inkscape:connector-curvature="0"
       transform="scale(0.26458333)" />
    <path
       style="opacity:1;fill:#e6e6e6;fill-opacity:1;stroke:#040481;stroke-width:0.00472441;stroke-linecap:round;stroke-linejoin:round;stroke-miterlimit:4;stroke-dasharray:none;stroke-opacity:1"
       d="m 43.433152,95.718568 v -16.625 h 32.875 32.874998 v 16.625 16.625002 h -32.874998 -32.875 z"
       id="path8424"
       inkscape:connector-curvature="0"
       transform="scale(0.26458333)" />
    <path
       style="opacity:1;fill:#e6e6e6;fill-opacity:1;stroke:#040481;stroke-width:0.00472441;stroke-linecap:round;stroke-linejoin:round;stroke-miterlimit:4;stroke-dasharray:none;stroke-opacity:1"
       d="m 65.183152,70.587928 v -7.25564 l -4.5625,0.06814 -4.5625,0.06814 -0.555059,2.5 c -0.305282,1.375 -0.734546,3.714105 -0.953919,5.198012 -0.666057,4.505418 -1.589037,7.348205 -1.636191,5.039488 -0.06339,-3.103868 0.08404,-9.960868 0.242967,-11.3 l 0.185435,-1.5625 h -2.562841 c -1.409563,0 -2.846817,0.107967 -3.193897,0.239927 -1.218512,0.463278 -1.901438,2.471538 -2.553741,7.509705 -0.889809,6.872578 -1.332494,6.142528 -1.364126,-2.249632 -0.01322,-3.50625 -0.107296,-10.36875 -0.209068,-15.25 -0.176608,-8.470594 -0.210788,-8.931959 -0.750102,-10.125 -1.321009,-2.922266 -1.83696,-3.875 -2.098494,-3.875 -0.11301,0 -0.135452,-0.113295 -0.04987,-0.251766 0.08558,-0.138471 -0.01964,-0.319009 -0.23381,-0.401196 -0.214175,-0.08219 -0.331971,-0.242369 -0.261768,-0.35596 0.0702,-0.113591 0.01331,-0.277192 -0.126436,-0.363558 -0.591419,-0.365517 -0.14595,-0.950297 1.558423,-2.045787 4.392091,-2.823028 8.972421,-4.678184 14.162111,-5.736035 2.987062,-0.608874 3.461448,-0.636606 9.150388,-0.534923 5.424248,0.09695 6.284235,0.172884 8.96207,0.791288 6.09393,1.407301 11.570055,3.707429 16.03793,6.736388 3.072558,2.083015 8.073733,7.108037 10.090975,10.139092 0.861121,1.293898 2.107971,3.487648 2.770791,4.875 1.2872,2.694289 3.73931,9.080082 3.83221,9.979897 0.0552,0.534295 -0.0239,0.546367 -5.19398,0.79256 l -5.249996,0.25 -0.0813,0.710185 c -0.04471,0.3906 0.16372,2.9781 0.46318,5.75 0.29946,2.771897 0.587145,5.68669 0.6393,6.477315 l 0.09483,1.4375 H 94.67866 92.183152 l 0.0079,-0.8125 c 0.0075,-0.76757 0.02819,-0.785738 0.374048,-0.328523 0.28185,0.372605 0.725877,0.49885 1.92955,0.548598 l 1.563452,0.06462 -1.317167,-0.209355 C 92.507037,76.751328 92.583552,76.958375 92.192455,70.210053 91.859447,64.46408 91.7793,63.912603 91.234895,63.621308 91.000187,63.495723 88.670652,63.322 86.058152,63.23526 c -2.6125,-0.08674 -5.228125,-0.21725 -5.8125,-0.29002 -0.615885,-0.07669 -1.0625,-0.02954 -1.0625,0.112175 0,0.134468 0.136368,0.289943 0.303038,0.345498 0.22477,0.07493 0.329407,1.952872 0.405127,7.270835 l 0.10209,7.16982 H 72.58828 65.183152 Z m 9.625,2.158352 c 2.358125,-1.11757 3.125,-2.34494 3.125,-5.001517 0,-1.36082 -0.138407,-1.8804 -0.879812,-3.3028 -0.923305,-1.771375 -0.879773,-2.086195 0.289617,-2.094568 0.29414,-0.002 0.80039,-0.218777 1.125,-0.481495 l 0.590195,-0.477665 0.07873,-9.522334 0.07873,-9.522333 H 67.113835 55.012056 l -0.164452,4.540077 c -0.09045,2.497042 -0.18844,5.450167 -0.21776,6.5625 -0.02938,1.114603 -0.117669,0.114694 -0.196692,-2.227577 l -0.143384,-4.25 -0.03731,3.75 c -0.04177,4.197932 0.258506,10.786142 0.502738,11.030375 0.08763,0.08764 3.147883,0.297882 6.800552,0.46722 3.652669,0.169335 6.710289,0.376955 6.794709,0.461375 0.08442,0.08442 -0.15496,0.859437 -0.531958,1.72226 -1.220612,2.793582 -1.115912,5.258385 0.304075,7.158482 1.331975,1.782325 4.31358,2.312145 6.68558,1.188 z"
       id="path8426"
       inkscape:connector-curvature="0"
       transform="scale(0.26458333)" />
    <path
       style="opacity:1;fill:#e6e6e6;fill-opacity:1;stroke:#040481;stroke-width:0.00472441;stroke-linecap:round;stroke-linejoin:round;stroke-miterlimit:4;stroke-dasharray:none;stroke-opacity:1"
       d="m 31.863821,55.502323 c -1.448503,-0.610249 -4.135869,-2.501115 -4.350834,-3.061305 -0.380708,-0.992109 4.123001,-7.562409 7.652923,-11.164573 l 2.883117,-2.942124 0.447926,0.567124 c 0.817339,1.034842 2.274876,3.766159 2.896641,5.428093 0.521652,1.39434 0.630746,2.202532 0.730755,5.413587 l 0.11756,3.774557 -0.766821,0.546025 c -1.81746,1.294146 -3.57556,1.877742 -5.916935,1.96411 -1.937238,0.07146 -2.450771,-0.0016 -3.694332,-0.525494 z"
       id="path8428"
       inkscape:connector-curvature="0"
       transform="scale(0.26458333)" />
    <path
       style="opacity:1;fill:#e6e6e6;fill-opacity:1;stroke:#040481;stroke-width:0.00472441;stroke-linecap:round;stroke-linejoin:round;stroke-miterlimit:4;stroke-dasharray:none;stroke-opacity:1"
       d="m 20.993868,95.781068 0.06429,-16.5625 11.1875,-0.06507 11.187499,-0.06507 V 95.715994 112.34357 H 32.181368 20.929583 Z"
       id="path8430"
       inkscape:connector-curvature="0"
       transform="scale(0.26458333)" />
    <path
       style="opacity:1;fill:#e6e6e6;fill-opacity:1;stroke:#040481;stroke-width:0.00472441;stroke-linecap:round;stroke-linejoin:round;stroke-miterlimit:4;stroke-dasharray:none;stroke-opacity:1"
       d="m 40.577775,76.875318 c -0.470914,-0.761955 0.719536,-7.57472 1.961817,-11.227178 0.324748,-0.9548 0.510828,-1.86483 0.413511,-2.022292 -0.126226,-0.204238 -2.6802,-0.304225 -8.910945,-0.348858 -7.913894,-0.05669 -8.813037,-0.105472 -9.575679,-0.5195 -0.816651,-0.44335 -0.838358,-0.495317 -0.730126,-1.747929 0.07793,-0.901957 0.61492,-2.377934 1.78196,-4.897946 0.918727,-1.983825 1.71289,-3.649431 1.764806,-3.701347 0.05192,-0.05192 0.416287,0.208791 0.809713,0.579349 1.099089,1.035203 3.089202,2.248162 4.469204,2.723947 2.310803,0.796699 6.217266,0.125471 8.653775,-1.486934 l 0.967342,-0.640156 -0.0044,-2.058953 c -0.0092,-4.287457 -0.377507,-6.330373 -1.595116,-8.84891 -0.61612,-1.2744 -1.405611,-2.737084 -1.754424,-3.250409 -0.580293,-0.853977 -0.600865,-0.970158 -0.242001,-1.366697 0.666984,-0.73701 1.448476,-0.473033 1.323583,0.447089 -0.01232,0.09076 0.158796,0.266429 0.380258,0.390365 0.221462,0.123937 0.337402,0.330925 0.257645,0.459974 -0.07976,0.129049 -0.01874,0.234635 0.135599,0.234635 0.154336,0 0.789604,1.074497 1.411708,2.387771 l 1.131098,2.387771 0.220026,7.049729 c 0.284023,9.100188 0.408408,23.123536 0.198485,22.377509 -0.102673,-0.36488 -0.171762,-0.05098 -0.1875,0.851875 -0.02186,1.253785 0.0289,1.412537 0.41258,1.290527 0.297704,-0.09467 0.228911,0.05424 -0.215291,0.466 -0.469759,0.435458 -0.973572,0.617258 -1.796863,0.648398 -0.62924,0.0238 -1.205565,-0.05622 -1.280723,-0.17783 z"
       id="path8432"
       inkscape:connector-curvature="0"
       transform="scale(0.26458333)" />
    <path
       style="opacity:1;fill:#e6e6e6;fill-opacity:1;stroke:#040481;stroke-width:0.00472441;stroke-linecap:round;stroke-linejoin:round;stroke-miterlimit:4;stroke-dasharray:none;stroke-opacity:1"
       d="m 52.193162,77.031068 0.01001,-0.8125 0.384179,0.708882 c 0.359019,0.66246 0.413596,0.682259 0.833396,0.302345 0.276781,-0.250483 0.580515,-1.145477 0.79126,-2.331559 0.286218,-1.61085 0.368149,-1.802998 0.502015,-1.177345 0.08799,0.411222 0.173284,1.507052 0.189553,2.435177 l 0.02958,1.6875 h -1.375 -1.375 z"
       id="path8434"
       inkscape:connector-curvature="0"
       transform="scale(0.26458333)" />
    <path
       style="opacity:1;fill:#e6e6e6;fill-opacity:1;stroke:#040481;stroke-width:0.00472441;stroke-linecap:round;stroke-linejoin:round;stroke-miterlimit:4;stroke-dasharray:none;stroke-opacity:1"
       d="m 43.628537,77.252949 c -0.07415,-0.387864 0.04188,-0.687283 0.337983,-0.872201 0.247987,-0.154871 0.556783,-0.648468 0.686212,-1.096882 0.207094,-0.717486 0.238031,-0.612847 0.257873,0.872202 0.02161,1.617629 -0.0021,1.6875 -0.573308,1.6875 -0.427803,0 -0.627699,-0.166576 -0.70876,-0.590619 z"
       id="path8436"
       inkscape:connector-curvature="0"
       transform="scale(0.26458333)" />
    <path
       style="opacity:1;fill:#e6e6e6;fill-opacity:1;stroke:#040481;stroke-width:0.00472441;stroke-linecap:round;stroke-linejoin:round;stroke-miterlimit:4;stroke-dasharray:none;stroke-opacity:1"
       d="m 68.7486,62.781068 c 0.05862,-0.553724 0.0049,-0.564619 -3.440448,-0.698293 l -3.5,-0.135792 2.625,-0.08227 c 9.619784,-0.301487 14.000727,-0.375146 14.000389,-0.235394 -6.23e-4,0.257794 -0.724594,0.464247 -1.627978,0.464247 -0.460183,0 -1.003184,0.166487 -1.206669,0.369972 -0.296184,0.296185 -0.526377,0.31545 -1.154179,0.0966 -1.056678,-0.368359 -3.688921,-0.170508 -4.737472,0.356091 -1.062945,0.533827 -1.029962,0.538477 -0.958643,-0.135161 z"
       id="path8438"
       inkscape:connector-curvature="0"
       transform="scale(0.26458333)" />
  </g>
  <g
     inkscape:label="Layer 1"
     inkscape:groupmode="layer"
     id="layer1"
     transform="translate(0,-266.99999)"
     style="display:inline">
    <path
       style="fill:none;stroke:#000000;stroke-width:0.31882942;stroke-linecap:butt;stroke-linejoin:miter;stroke-miterlimit:4;stroke-dasharray:none;stroke-opacity:1"
       d="m 1.561068,300.24786 c 0,-20.65371 0,-20.65371 0,-20.65371 0,0 0,-1.72115 1.9539307,-3.4423 1.9539307,-1.72113 1.9539307,-6.88456 1.9539307,-6.88456 H 7.42286 c 0,0 0,5.16343 1.9539306,6.88456 1.9539304,1.72115 1.9539304,3.4423 1.9539304,3.4423 v 20.65371 H 1.561068"
       id="path6601"
       inkscape:connector-curvature="0" />
    <path
       style="fill:none;stroke:#000000;stroke-width:0.36676934px;stroke-linecap:butt;stroke-linejoin:miter;stroke-opacity:1"
       d="m 1.561068,283.03643 c 5.861792,-1.72115 3.9078614,-3.44228 5.861792,-1.72115 1.9539306,1.72115 3.907861,0 3.907861,0 v 0"
       id="path6616"
       inkscape:connector-curvature="0" />
    <path
       style="fill:#fff721;fill-opacity:0.94488192;stroke:#000000;stroke-width:0.06873368;stroke-linecap:round;stroke-linejoin:round;stroke-miterlimit:4;stroke-dasharray:none;stroke-opacity:1"
       d="m 1.7893487,291.56028 0.021419,-8.43108 0.8003388,-0.27541 c 1.4221084,-0.48939 2.46462,-1.02654 3.2974138,-1.69898 0.2613413,-0.21101 0.5033573,-0.38366 0.5378139,-0.38366 0.034455,0 0.3360873,0.22879 0.6702915,0.50843 0.8272637,0.6922 1.3857633,0.92671 2.1960872,0.92211 0.5130564,-0.002 0.7174351,-0.0435 1.1811681,-0.23467 0.30842,-0.12711 0.575462,-0.23116 0.593427,-0.23116 0.01797,0 0.03267,4.10749 0.03267,9.12774 v 9.12774 H 6.4439509 1.7679286 Z"
       id="path6618"
       inkscape:connector-curvature="0" />
  </g>
</svg>
